<svg width="100%" height="auto" viewBox="0 0 48 28" xmlns="http://www.w3.org/2000/svg" xmlns:xlink="http://www.w3.org/1999/xlink"><defs><path d="M47.997 23.603 48 24h-4c0-6.866-3.46-12.923-8.73-16.525L37.39 4.08c6.297 4.242 10.474 11.39 10.606 19.523zM11.313 3.623l2.002 3.468C7.717 10.636 4 16.884 4 24H0C0 15.403 4.52 7.862 11.313 3.624zM24 0a23.89 23.89 0 0 1 12.035 3.23l-2.122 3.395A19.908 19.908 0 0 0 24 4c-3.358 0-6.523.828-9.302 2.29l-2.001-3.467A23.894 23.894 0 0 1 24 0z" id="a"></path></defs><g fill="none" fill-rule="evenodd"><path d="M0 0h48v28H0z"></path><g transform="translate(0 3)"><mask id="b" fill="#fff"><use xlink:href="#a"></use></mask><use fill="#D8D8D8" xlink:href="#a"></use><path fill="#02A1A1" mask="url(#b)" d="M6.379 3.205 10.463 2 24 25H-1.206L-2 15.604z"></path><path fill="#FEA948" mask="url(#b)" d="M11 1.345 22.575-4h5.524L37 1.345 24.19 25z"></path><path fill="#FF5532" mask="url(#b)" d="M37.618 1.5 24 23.58 48.38 26 50 22.774 45.594 1z"></path></g><path d="M24 0c4.944 0 9.578 1.329 13.564 3.649l-2.12 3.395A22.894 22.894 0 0 0 24 4c-3.947 0-7.662.994-10.908 2.746L11.09 3.281A26.88 26.88 0 0 1 24 0z" fill="#FEA948"></path><path d="m24.5 10.368 1.965 14.134c.03.616-.184 1.102-.528 1.443-.356.352-.865.555-1.437.555-.538 0-1.022-.18-1.373-.461-.407-.325-.64-.783-.627-1.277l2-14.394z" stroke="#222" fill="#222" stroke-linejoin="round"></path></g></svg>