<svg width="100%" height="100%" xmlns="http://www.w3.org/2000/svg" xmlns:xlink="http://www.w3.org/1999/xlink" viewBox="0 0 86 48"><defs><linearGradient x1="-444.098%" y1="402.459%" x2="289.176%" y2="-120.613%" id="logo_footer_sixnetwork_svg__c"><stop stop-color="#666" offset="0%"></stop><stop stop-color="#666" offset="100%"></stop></linearGradient><linearGradient x1="16.802%" y1="128.512%" x2="83.514%" y2="-29.26%" id="logo_footer_sixnetwork_svg__d"><stop stop-color="#666" offset="0%"></stop><stop stop-color="#666" offset="100%"></stop></linearGradient><linearGradient x1="-52.195%" y1="134.547%" x2="76.152%" y2="28.364%" id="logo_footer_sixnetwork_svg__f"><stop stop-color="#666" offset="0%"></stop><stop stop-color="#666" offset="100%"></stop></linearGradient><linearGradient x1="14.618%" y1="81.998%" x2="133.157%" y2="-24.185%" id="logo_footer_sixnetwork_svg__i"><stop stop-color="#666" offset="0%"></stop><stop stop-color="#666" offset="100%"></stop></linearGradient><path id="logo_footer_sixnetwork_svg__a" d="M0 0h4.918v4.942H0z"></path><path id="logo_footer_sixnetwork_svg__e" d="M0 0l8.068 13.375L0 26.749h6.428l5.048-8.54 5.091 8.54h6.385l-8.281-13.268 4.355-6.978h-6.234L11.59 8.545 6.256 0z"></path><path d="M7.392.217S1.381.158.07 6.844a6.772 6.772 0 00-.07.978v.009c0 .562.063 1.243.252 2.022v.001c.928 3.505 3.548 5.084 5.165 5.742a5.95 5.95 0 001.863.423h5.829s2.869.065 2.869 2.883c.064 2.32-2.46 2.602-2.46 2.602H1.483v5.245h12.12c1.372-.082 6.216-.758 7.483-6.192.073-.435.113-.899.113-1.395 0-7.435-6.666-8.475-6.666-8.475H7.09S5.192 9.95 5.192 7.934s2.092-2.688 2.092-2.688h12.879V0L7.393.217z" id="logo_footer_sixnetwork_svg__h"></path></defs><g fill="none" fill-rule="evenodd"><path d="M55.547 15.926c.154 0 .276.129.276.293 0 .163-.122.292-.276.292a.282.282 0 01-.277-.292c0-.164.122-.293.277-.293m3.683-1.594c0-.624-.476-1.135-1.071-1.135-.589 0-1.064.51-1.078 1.135v2.029c-.007.03-.014.06-.036.083a.15.15 0 01-.127.067h-.043a.189.189 0 01-.113-.097c-.008-.008-.008-.016-.008-.023 0-.007-.007-.015-.007-.015v-3.359c0-.098.071-.18.17-.18.093 0 .164.082.164.18v.353a1.379 1.379 0 011.078-.534c.78 0 1.411.676 1.411 1.496v1.999c0 .105-.078.18-.17.18-.092 0-.17-.075-.17-.18v-2zm1.979.052h2.63c-.113-.691-.666-1.195-1.304-1.195-.653 0-1.199.496-1.326 1.195m-.362.293c0-1.022.752-1.848 1.688-1.848.893 0 1.603.751 1.673 1.713v.03a.165.165 0 01-.17.166h-2.85c.035.804.63 1.413 1.347 1.413.46 0 .886-.256 1.12-.67a.16.16 0 01.227-.06.2.2 0 01.057.256c-.298.504-.816.834-1.404.834-.936 0-1.688-.826-1.688-1.834m5.496-1.668c0 .09-.085.18-.17.18h-.447v2.683c0 .18.17.271.256.271.085 0 .177.098.177.188s-.092.18-.177.18c-.348 0-.61-.27-.61-.639V13.19h-.433c-.17 0-.17-.09-.17-.18s0-.18.17-.18h.433v-1.37c0-.09.085-.18.17-.18.092 0 .184.09.184.18v1.368h.447c.085 0 .17.09.17.18m2.787 3.473c-.035-.015-.056-.045-.07-.083l-1.305-3.291a.188.188 0 01.085-.233.164.164 0 01.22.097l1.156 2.901.801-2.021a.187.187 0 01.163-.113.19.19 0 01.17.113l.802 2.021 1.149-2.9c.035-.09.142-.136.22-.098a.184.184 0 01.092.233l-1.298 3.276a.204.204 0 01-.064.09c-.028.023-.057.038-.085.038h-.035c-.057-.007-.121-.052-.135-.113l-.007-.007-.809-2.037-.801 2.03s-.007.007-.007.014a.168.168 0 01-.15.113.197.197 0 01-.063-.015c-.014 0-.021-.007-.028-.015m6.249-.331c.708 0 1.304-.66 1.304-1.48s-.596-1.488-1.305-1.488-1.305.669-1.305 1.488c0 .82.596 1.48 1.305 1.48m0-3.321c.915 0 1.645.841 1.645 1.841s-.73 1.841-1.645 1.841c-.908 0-1.645-.841-1.645-1.841s.737-1.841 1.645-1.841m2.809.188c0-.106.078-.18.177-.18.085 0 .163.074.163.18v.811c.015-.03.029-.06.05-.09.262-.436.723-.902 1.39-.902.092 0 .17.075.17.18 0 .098-.078.18-.17.18-.454 0-.766.271-1.007.602a3.36 3.36 0 00-.418.857c-.015.03-.015.045-.015.06v1.616c0 .105-.078.18-.163.18a.175.175 0 01-.177-.18v-3.314zm3.113-1.587c0-.097.078-.18.17-.18.1 0 .178.083.178.18v3.54l2.057-2.171c.07-.076.17-.076.24 0a.18.18 0 010 .255l-1.34 1.42 1.348 1.737a.197.197 0 01-.014.263.172.172 0 01-.114.037c-.05 0-.106-.015-.134-.067l-1.334-1.706-.709.751v.842a.18.18 0 01-.177.18c-.093 0-.17-.082-.17-.18v-4.9z" fill="#666"></path><path d="M66.425 16.33c.06-.06.062-.19-.002-.253-.063-.064-.197-.067-.258-.007-.058.06-.234.114-.36-.002l-.251.252c.258.252.628.255.87.01m-17.352-1.72l-.544-.399 4.694-6.46.544.399zm4.243 9.091l-4.684-6.447.543-.398 4.685 6.447z" fill="#666"></path><g transform="translate(52.077 4)"><mask id="logo_footer_sixnetwork_svg__b" fill="#fff"><use xlink:href="#logo_footer_sixnetwork_svg__a"></use></mask><path d="M2.46 3.882a1.407 1.407 0 01-1.404-1.41c0-.78.628-1.411 1.403-1.411s1.404.631 1.404 1.41c0 .78-.629 1.41-1.404 1.41M2.46 0A2.465 2.465 0 000 2.471a2.465 2.465 0 002.46 2.471 2.465 2.465 0 002.458-2.47A2.465 2.465 0 002.46 0" fill="#666" mask="url(#logo_footer_sixnetwork_svg__b)"></path></g><path d="M47.677 17.03a1.407 1.407 0 01-1.404-1.411c0-.78.628-1.41 1.404-1.41.775 0 1.403.63 1.403 1.41 0 .779-.628 1.41-1.403 1.41m0-3.881a2.465 2.465 0 00-2.46 2.47 2.465 2.465 0 002.46 2.472 2.465 2.465 0 002.459-2.471 2.465 2.465 0 00-2.46-2.471m6.86 13.462a1.407 1.407 0 01-1.403-1.41c0-.779.628-1.41 1.403-1.41s1.404.631 1.404 1.41c0 .779-.629 1.41-1.404 1.41m0-3.881a2.465 2.465 0 00-2.459 2.471 2.465 2.465 0 002.46 2.471 2.465 2.465 0 002.458-2.47 2.465 2.465 0 00-2.459-2.472" fill="#666"></path><path fill="url(#logo_footer_sixnetwork_svg__c)" d="M22.86 14.68h5.403V9.25h-5.404z" transform="translate(0 4)"></path><path fill="url(#logo_footer_sixnetwork_svg__d)" d="M22.86 36h5.403V17.997h-5.404z" transform="translate(0 4)"></path><g transform="translate(28.92 13.25)"><mask id="logo_footer_sixnetwork_svg__g" fill="#fff"><use xlink:href="#logo_footer_sixnetwork_svg__e"></use></mask><path fill="url(#logo_footer_sixnetwork_svg__f)" mask="url(#logo_footer_sixnetwork_svg__g)" d="M0 0l8.068 13.375L0 26.749h6.428l5.048-8.54 5.091 8.54h6.385l-8.281-13.268 4.355-6.978h-6.234L11.59 8.545 6.256 0z"></path></g><g transform="translate(0 13.25)"><mask id="logo_footer_sixnetwork_svg__j" fill="#fff"><use xlink:href="#logo_footer_sixnetwork_svg__h"></use></mask><path d="M7.392.217S1.381.158.07 6.844a6.772 6.772 0 00-.07.978v.009c0 .562.063 1.243.252 2.022v.001c.928 3.505 3.548 5.084 5.165 5.742a5.95 5.95 0 001.863.423h5.829s2.869.065 2.869 2.883c.064 2.32-2.46 2.602-2.46 2.602H1.483v5.245h12.12c1.372-.082 6.216-.758 7.483-6.192.073-.435.113-.899.113-1.395 0-7.435-6.666-8.475-6.666-8.475H7.09S5.192 9.95 5.192 7.934s2.092-2.688 2.092-2.688h12.879V0L7.393.217z" fill="url(#logo_footer_sixnetwork_svg__i)" mask="url(#logo_footer_sixnetwork_svg__j)"></path></g></g></svg>